<?xml version="1.0" encoding="utf-8"?>
<!-- Generator: Adobe Illustrator 18.1.1, SVG Export Plug-In . SVG Version: 6.00 Build 0)  -->
<svg version="1.0" id="Слой_1" xmlns="http://www.w3.org/2000/svg" xmlns:xlink="http://www.w3.org/1999/xlink" x="0px" y="0px"
	 viewBox="0 0 500 100" enable-background="new 0 0 500 100" xml:space="preserve">
<g>
	<g>
		<rect x="200.2" fill="#FFBE2C" width="299.8" height="100"/>
		<g>
			<path fill="#FFFFFF" d="M243.9,78.3h-11.2l9.5-47.8h-20.5l-9.5,47.8H201l11.3-56.5h42.9L243.9,78.3z"/>
			<path fill="#FFFFFF" d="M269,57.8l-4.1,20.5h-11.2L265,21.7h21.3c5.8,0,10.1,1.7,13.1,5c3,3.3,4,7.7,2.9,13.1
				c-1.2,5.8-3.7,10.3-7.7,13.4s-9.1,4.6-15.5,4.6H269z M270.7,49h10.1c2.7,0,4.9-0.9,6.7-2.6c1.8-1.7,3-3.9,3.6-6.6
				c0.6-2.9,0.3-5.2-0.7-6.9c-1-1.7-3-2.5-5.9-2.5h-10.1L270.7,49z"/>
			<path fill="#FFFFFF" d="M349.8,55.2c-1.6,7.6-4.6,13.4-9.1,17.6c-4.5,4.2-10.1,6.2-16.9,6.2c-6.3,0-11.2-2.3-14.8-6.9
				c-3.6-4.6-4.7-10.3-3.4-17.2l2-10.2c1.5-7.6,4.5-13.5,8.8-17.6c4.4-4.2,9.9-6.2,16.5-6.2c6.3,0,11.4,2.3,15.1,7
				c3.8,4.6,5,10.4,3.6,17.2L349.8,55.2z M340.6,45c0.9-4.7,0.5-8.4-1.2-11.1c-1.7-2.7-4.5-4.1-8.1-4.1c-3.2,0-5.8,1.4-7.9,4.1
				c-2.1,2.7-3.6,6.3-4.5,10.9L316.8,55c-1,4.7-0.6,8.5,1,11.2c1.6,2.7,4.2,4.1,7.8,4.1c3.2,0,5.9-1.4,8.2-4.1
				c2.3-2.7,3.9-6.4,4.8-10.9L340.6,45z"/>
			<path fill="#FFFFFF" d="M374.2,54.8h-4.4l-4.7,23.4h-11.2l11.3-56.5h11.2l-4.6,23.1h4.5l15.5-23.1h14.6l-22.1,28.2l11.4,28.3
				h-12.8L374.2,54.8z"/>
			<path fill="#FFFFFF" d="M432.8,65.9h-17.7l-5.9,12.3h-11.2l29.2-56.5h11.4l6.6,56.5h-11.3L432.8,65.9z M419.3,57.2h12.8
				l-1.9-22.3l-0.1,0L419.3,57.2z"/>
			<path fill="#FFFFFF" d="M497.4,30.5H481l-9.5,47.8h-11.2l9.5-47.8h-16.3l1.7-8.7h43.9L497.4,30.5z"/>
		</g>
	</g>
	<g>
		<path fill="#2087D4" d="M17.6,54.7h-6.3v23.6H0V21.7h11.3v23.1h4.9l15-23.1h13.8L26.5,48.2l20.1,30.1H32.8L17.6,54.7z"/>
		<path fill="#2087D4" d="M62.6,57.8v20.5H51.3V21.7h22.5c6.6,0,11.8,1.6,15.4,4.9c3.7,3.3,5.5,7.6,5.5,13.2s-1.8,9.9-5.5,13.1
			c-3.7,3.2-8.8,4.9-15.4,4.9H62.6z M62.6,49h11.2c3.2,0,5.6-0.8,7.2-2.5c1.6-1.7,2.4-3.9,2.4-6.6c0-2.8-0.8-5-2.4-6.8
			s-4-2.6-7.2-2.6H62.6V49z"/>
		<path fill="#2087D4" d="M126.4,65.9h-19.8l-3.8,12.3H91.3l19.4-56.5h11.6l19.4,56.5h-11.4L126.4,65.9z M109.3,57.2h14.4l-7.1-22.9
			h-0.1L109.3,57.2z"/>
		<path fill="#2087D4" d="M190.2,59.6c-0.5,6.2-2.6,11-6.4,14.4c-3.8,3.4-9.1,5.1-16,5.1c-6.9,0-12.3-2.1-16.3-6.4s-6-9.9-6-17V44.4
			c0-7,2-12.7,6.1-17c4-4.3,9.4-6.5,16.2-6.5c7,0,12.3,1.7,16,5.1c3.7,3.4,5.8,8.3,6.4,14.7h-11.3c-0.3-3.7-1.3-6.5-3-8.3
			c-1.7-1.8-4.4-2.7-8.1-2.7c-3.5,0-6.2,1.4-8.1,4.1c-1.9,2.7-2.9,6.2-2.9,10.6v11.3c0,4.5,0.9,8.1,2.8,10.7c1.8,2.7,4.6,4,8.2,4
			c3.6,0,6.3-0.9,8-2.6c1.7-1.8,2.8-4.5,3.1-8.2H190.2z"/>
	</g>
</g>
</svg>
